# xmcd CD database file generated by MAGIX-FreeDB-MP3_Maker_12 v2.0beta1
# 
# Track frame offsets:
#      150
#      15507
#      39242
#      55080
#      68552
#      80390
#      96155
#      113520
#      134485
#      148662
#      166105
#      181487
#      200247
#      218937
# 
# Disc length: 3101 seconds
# 
# Revision: 0 
# Processed by: cddbd v1.5.2PL0 Copyright (c) Steve Scherf et al.
# Submitted via: MAGIX-FreeDB-MP3_Maker_12 v2.0beta1
# 
DISCID=bd0c1b0e
DTITLE=rr - Feel Love
DYEAR=1900
DGENRE=
TTITLE0=The Real Thing - you to me are everthing
TTITLE1=Viktor Lazlo - sweet soft and lazy
TTITLE2=Tracey Ullman - if i had you
TTITLE3=Gilbert O´Sullivan - clair
TTITLE4=The Foundations - baby now that i´ve found you
TTITLE5=Bonnie Tyler - it´s a heartache
TTITLE6=Dollar - shoting star
TTITLE7=Gladys Knight and The Pips - midnight train to georgia
TTITLE8=Uriah Heep - woman of the world
TTITLE9=The Kinks - apeman
TTITLE10=Sweet Sensation - sad sweet dreamer
TTITLE11=Simon May - summer of my life
TTITLE12=David Parton - isn´t she lovely
TTITLE13=Pickettywitch - that same old feeling
EXTD=
EXTT0=
EXTT1=
EXTT2=
EXTT3=
EXTT4=
EXTT5=
EXTT6=
EXTT7=
EXTT8=
EXTT9=
EXTT10=
EXTT11=
EXTT12=
EXTT13=
PLAYORDER=
